<svg width="100" height="100" viewBox="0 0 100 100" fill="none" xmlns="http://www.w3.org/2000/svg">
<path d="M28.4998 20C16.8998 27.1 7.09979 33.1 6.49979 33.3C5.19979 33.8 8.59979 40.9 10.4998 41.6C11.7998 42.1 11.9998 45.7 11.9998 65.1V88H49.9998H87.9998V65.1C87.9998 45.7 88.1998 42.1 89.4998 41.6C90.9998 41.1 94.6998 34.3 93.8998 33.7C92.7998 32.7 50.1998 7 49.8998 7C49.6998 7.1 40.0998 12.9 28.4998 20ZM64.4998 26.9L78.4998 35.6L78.7998 57.3L78.9998 79H49.9998H20.9998L21.1998 57.3L21.4998 35.6L35.4998 26.9C43.1998 22.1 49.6998 18.2 49.9998 18.2C50.2998 18.2 56.7998 22.1 64.4998 26.9Z" fill="#7C170D"/>
<path d="M33 39C33 40.3 32.3 41 31 41C29.3 41 29 41.7 29 45.5C29 49.3 28.7 50 27 50C25.3 50 25 50.7 25 54.5C25 58.3 25.3 59 27 59C28.7 59 29 59.7 29 63C29 66.3 29.3 67 31 67C32.3 67 33 67.7 33 69C33 70.7 33.7 71 37.5 71H42V65V59H50H58V65V71H62.5C66.3 71 67 70.7 67 69C67 67.7 67.7 67 69 67C70.7 67 71 66.3 71 63C71 59.7 71.3 59 73 59C74.7 59 75 58.3 75 54.5C75 50.7 74.7 50 73 50C71.3 50 71 49.3 71 45.5C71 41.7 70.7 41 69 41C67.7 41 67 40.3 67 39C67 37.3 66.3 37 62.5 37H58V43.5V50H50H42V43.5V37H37.5C33.7 37 33 37.3 33 39Z" fill="#275DA4"/>
</svg>
