<svg width="328" height="62" viewBox="0 0 328 62" fill="none" xmlns="http://www.w3.org/2000/svg">
<path d="M170.653 0.436352C169.851 0.506077 168.456 1.62168 164.9 5.03822C162.32 7.4786 160.089 9.43091 159.95 9.32632C159.775 9.2566 159.671 7.1997 159.671 4.82904C159.671 2.21435 159.531 0.506077 159.357 0.575802C159.148 0.610664 157.684 2.00517 156.045 3.60885L153.047 6.53731V15.8805V25.2585H156.324H159.601L159.706 22.2952C159.845 19.4016 159.88 19.3319 161.24 17.9374C161.972 17.1704 162.739 16.5429 162.913 16.5429C163.052 16.5429 164.796 18.0768 166.748 19.9246C173.128 26.0255 172.919 25.8512 173.267 25.2585C173.442 24.9796 173.616 22.9925 173.616 20.9007V17.031L171.001 14.4511C169.572 13.0218 168.386 11.7318 168.386 11.5575C168.386 11.3832 170.827 8.90797 173.79 6.01437C176.788 3.12077 179.124 0.680389 179.02 0.575802C178.81 0.366627 172.396 0.262039 170.653 0.436352Z" fill="#275DA4"/>
<path d="M129.48 2.99789C126.168 6.58874 126.308 5.96122 126.238 17.7796L126.203 25.9375L133.699 18.4769C137.812 14.3631 141.368 10.9117 141.543 10.8768C141.752 10.8071 141.891 13.387 141.891 17.9191V25.1008H145.168C146.981 25.1008 148.55 24.9962 148.62 24.8219C148.724 24.6824 148.829 19.1742 148.899 12.5503L149.038 0.522646L145.901 0.418058L142.763 0.348331L139.8 3.24193C138.161 4.81075 135.93 6.97223 134.779 8.01811L132.757 9.93555L132.897 4.9502C132.966 1.39421 132.897 -0.000293732 132.618 -0.000293732C132.409 -0.000293732 130.979 1.35935 129.48 2.99789Z" fill="#275DA4"/>
<path d="M103.995 3.48612L100.753 6.58889L100.892 15.4091C100.997 20.255 101.067 24.5083 101.067 24.822C101.102 25.3798 101.485 25.4496 104.204 25.4496H107.307L107.516 24.3688C107.621 23.7762 107.725 21.7193 107.725 19.8367V16.4202L111.003 16.3156C115.779 16.1761 115.395 15.8275 115.395 20.1505C115.395 25.6936 115.221 25.4496 118.881 25.4496H121.949L122.089 22.2771C122.124 20.5339 122.124 14.9559 122.089 9.90084L121.949 0.697109H118.672H115.43L115.326 5.12466L115.221 9.58708L112.258 9.69167C107.447 9.86598 107.725 10.1797 107.725 4.88062C107.725 2.37052 107.621 0.348482 107.481 0.348482C107.307 0.348482 105.738 1.77785 103.995 3.48612Z" fill="#275DA4"/>
<path d="M81.9964 0.803495C81.6826 0.908083 80.1486 2.23286 78.545 3.69709L75.6514 6.38152L75.7211 15.6898C75.756 20.8146 75.8605 25.1376 75.9651 25.3119C76.0697 25.4514 77.5339 25.5908 79.2771 25.5908H82.3799L82.4147 24.6147C82.4147 24.0917 82.4844 19.9082 82.5193 15.3063L82.589 6.93932L85.8313 6.83473C89.1781 6.73014 90.0496 7.00904 90.0496 8.12465C90.0148 9.41456 89.4221 9.72833 86.668 9.90264L83.9487 10.077V12.6917V15.3063L86.5634 15.4109C89.3524 15.5155 90.0496 15.899 90.0496 17.4678C90.0496 18.5834 89.0735 18.9669 86.2845 18.9669C84.6459 18.9669 83.8092 19.1064 83.7046 19.3853C83.3211 20.4312 83.3909 24.8238 83.8092 25.1027C84.5762 25.556 90.6772 25.2422 92.1414 24.6844C94.6515 23.6734 96.6735 20.6752 96.6735 17.921C96.6735 16.3871 95.5579 13.8073 94.7561 13.4935C94.024 13.2495 94.1286 12.5522 94.9653 11.7852C98.2772 8.85676 96.3249 2.37231 91.8625 1.22185C90.2937 0.838358 82.7633 0.524595 81.9964 0.803495Z" fill="#275DA4"/>
<path d="M57.5931 3.66008L55.083 6.23992L55.1527 15.9317L55.2573 25.6235L63.3803 25.7281L71.4684 25.7979V22.6602V19.5574L66.8666 19.4529L62.2298 19.3483V17.7794V16.2106L66.762 16.0363L71.2941 15.862L71.3987 14.1189C71.4684 13.1776 71.4336 11.8528 71.2941 11.2601L71.085 10.1097H66.5528H62.0207L62.1253 8.61058L62.2298 7.14635L66.6225 6.97203L71.0501 6.79772L72.8978 5.01973C73.9437 4.04357 75.2336 2.71879 75.7914 2.12613L76.8373 1.04539H68.4703H60.1381L57.5931 3.66008Z" fill="#275DA4"/>
<path d="M32.876 3.83475L29.6338 6.93753L29.7732 15.7578C29.8778 20.6037 29.9476 24.8569 29.9476 25.1707C29.9824 25.7285 30.3659 25.7982 33.0852 25.7982H36.188L36.3971 24.7175C36.5017 24.1248 36.6063 22.0679 36.6063 20.1853V16.7688L39.8834 16.6642C44.6596 16.5247 44.2761 16.1761 44.2761 20.4991C44.2761 26.0422 44.1018 25.7982 47.7624 25.7982H50.8303L50.9697 22.6257C51.0046 20.8826 51.0046 15.3046 50.9697 10.2495L50.8303 1.04574H47.5532H44.311L44.2064 5.4733L44.1018 9.93571L41.1385 10.0403C36.3274 10.2146 36.6063 10.5284 36.6063 5.22926C36.6063 2.71915 36.5017 0.697115 36.3623 0.697115C36.188 0.697115 34.6191 2.12648 32.876 3.83475Z" fill="#275DA4"/>
<path d="M32.876 3.83475L29.6338 6.93753L29.7732 15.7578C29.8778 20.6037 29.9476 24.8569 29.9476 25.1707C29.9824 25.7285 30.3659 25.7982 33.0852 25.7982H36.188L36.3971 24.7175C36.5017 24.1248 36.6063 22.0679 36.6063 20.1853V16.7688L39.8834 16.6642C44.6596 16.5247 44.2761 16.1761 44.2761 20.4991C44.2761 26.0422 44.1018 25.7982 47.7624 25.7982H50.8303L50.9697 22.6257C51.0046 20.8826 51.0046 15.3046 50.9697 10.2495L50.8303 1.04574H47.5532H44.311L44.2064 5.4733L44.1018 9.93571L41.1385 10.0403C36.3274 10.2146 36.6063 10.5284 36.6063 5.22926C36.6063 2.71915 36.5017 0.697115 36.3623 0.697115C36.188 0.697115 34.6191 2.12648 32.876 3.83475Z" fill="#275DA4"/>
<path d="M15.9544 3.78639C14.3507 5.18089 12.9562 6.40109 12.8516 6.50567C11.3177 8.00477 5.80939 13.1296 3.89194 14.8378C2.49744 16.058 1.34697 17.2085 1.34697 17.3479C1.34697 17.5223 3.54332 17.6617 6.2626 17.6617H11.1782L14.7691 14.3498C16.7214 12.5369 18.4297 11.0378 18.5691 11.0378C18.848 11.0378 18.7783 18.0452 18.4645 18.8122C18.2553 19.4048 17.593 19.4746 9.19106 19.5094L0.126781 19.5792L0.0221935 22.3333C-0.0475317 23.8673 0.0570562 25.2269 0.196507 25.3664C0.649721 25.8196 24.5655 26.1682 24.8444 25.715C24.9838 25.5058 25.193 19.9975 25.2976 13.4782L25.5068 1.62491H22.9269C21.4976 1.62491 19.9985 1.52032 19.615 1.41573C19.0572 1.27628 18.1856 1.79922 15.9544 3.78639Z" fill="#275DA4"/>
<path d="M308.813 38.2008C304.281 42.2797 304.769 40.7807 304.699 51.5881C304.699 57.6193 304.804 61.001 305.013 61.001C305.222 61.001 307.314 59.1533 309.65 56.8872C318.679 48.2413 320.353 46.7073 320.701 46.7073C320.98 46.7073 321.085 48.9734 321.085 53.8541V61.001H324.362H327.639L327.848 58.456C327.987 57.0964 328.022 51.5532 327.987 46.1844L327.883 36.4228L324.954 36.3182L322.061 36.2136L318.679 39.4907C314.844 43.2559 312.543 45.3128 312.23 45.3128C312.125 45.3128 312.02 43.2908 312.02 40.8155C312.02 38.3054 311.881 36.2136 311.707 36.1091C311.532 35.9696 310.242 36.9458 308.813 38.2008Z" fill="#7C170D"/>
<path d="M314.007 35.7949C313.659 36.1087 313.694 41.1289 314.042 41.1289C314.53 41.1289 319.376 36.039 319.132 35.7949C318.818 35.4812 314.321 35.4812 314.007 35.7949Z" fill="#7C170D"/>
<path d="M195.37 38.1747L193.139 40.4408L196.381 43.8225L199.623 47.239L197.008 49.784L194.359 52.2941V56.6519C194.359 59.0575 194.463 61.0098 194.568 61.0098C194.917 61.0098 198.821 57.5584 202.97 53.584L204.783 51.8409L206.177 53.2703C207.572 54.6648 207.572 54.6996 207.676 57.5932L207.781 60.4868L210.884 60.5914C213.15 60.6611 214.091 60.5566 214.3 60.2428C214.44 59.9987 214.579 58.674 214.579 57.3143C214.579 54.8739 214.579 54.8391 216.009 53.584C216.776 52.8519 217.508 52.2941 217.612 52.2941C217.717 52.2941 219.809 54.2464 222.249 56.6519C224.724 59.0575 226.921 61.0098 227.095 61.0098C227.339 61.0098 227.513 59.8244 227.548 57.9419C227.583 56.2684 227.618 54.4207 227.653 53.7932C227.722 52.8519 227.339 52.2941 225.352 50.2372C224.027 48.9124 222.946 47.6574 222.946 47.4482C222.946 47.2739 225.456 44.7289 228.524 41.7656L234.102 36.4316L232.952 36.1876C232.359 36.0481 230.267 35.9435 228.35 35.9784L224.899 36.0133L221.9 38.628C220.262 40.0573 218.031 42.1142 216.95 43.1601C215.52 44.5546 214.893 44.9381 214.788 44.5895C214.684 44.3106 214.544 42.2885 214.509 40.0922L214.405 36.083H211.093H207.781L207.676 39.9179C207.642 42.0096 207.502 43.9619 207.432 44.2408C207.293 44.5546 206.386 43.8574 204.713 42.2537C200.948 38.5582 198.089 35.9087 197.845 35.9087C197.706 35.9087 196.59 36.9197 195.37 38.1747Z" fill="#7C170D"/>
<path d="M169.572 37.8612C166.26 41.452 166.4 40.8245 166.33 52.6429L166.295 60.8008L173.79 53.3402C177.904 49.2264 181.46 45.775 181.634 45.7401C181.844 45.6704 181.983 48.2502 181.983 52.7824V59.9641H185.26C187.073 59.9641 188.642 59.8595 188.712 59.6852C188.816 59.5457 188.921 54.0374 188.99 47.4135L189.13 35.3859L185.992 35.2813L182.855 35.2116L179.891 38.1052C178.253 39.674 176.022 41.8355 174.871 42.8814L172.849 44.7988L172.989 39.8135C173.058 36.2575 172.989 34.863 172.71 34.863C172.5 34.863 171.071 36.2226 169.572 37.8612Z" fill="#7C170D"/>
<path d="M281.133 38.2098C277.821 41.8007 277.96 41.1731 277.89 52.9916L277.855 61.1494L285.351 53.6888C289.465 49.575 293.021 46.1236 293.195 46.0888C293.404 46.019 293.544 48.5989 293.544 53.131V60.3127H296.821C298.634 60.3127 300.202 60.2081 300.272 60.0338C300.377 59.8944 300.481 54.3861 300.551 47.7622L300.69 35.7346L297.553 35.63L294.415 35.5602L291.452 38.4538C289.813 40.0227 287.582 42.1841 286.432 43.23L284.41 45.1475L284.549 40.1621C284.619 36.6061 284.549 35.2116 284.27 35.2116C284.061 35.2116 282.632 36.5713 281.133 38.2098Z" fill="#7C170D"/>
<path d="M255.647 39.0467L252.405 42.1494L252.545 50.9697C252.649 55.8156 252.719 60.0688 252.719 60.3826C252.754 60.9404 253.137 61.0101 255.857 61.0101H258.959L259.169 59.9294C259.273 59.3367 259.378 57.2798 259.378 55.3972V51.9807L262.655 51.8761C267.431 51.7367 267.048 51.388 267.048 55.711C267.048 61.2542 266.873 61.0101 270.534 61.0101H273.602L273.741 57.8376C273.776 56.0945 273.776 50.5165 273.741 45.4614L273.602 36.2577H270.325H267.082L266.978 40.6852L266.873 45.1476L263.91 45.2522C259.099 45.4265 259.378 45.7403 259.378 40.4412C259.378 37.9311 259.273 35.909 259.134 35.909C258.959 35.909 257.391 37.3384 255.647 39.0467Z" fill="#7C170D"/>
<path d="M147.538 35.6668C147.225 35.7714 145.691 37.0961 144.087 38.5604L141.193 41.2448L141.263 50.5531C141.298 55.6779 141.403 60.0009 141.507 60.1752C141.612 60.3147 143.076 60.4541 144.819 60.4541H147.922L147.957 59.4779C147.957 58.955 148.026 54.7715 148.061 50.1696L148.131 41.8026L151.373 41.698C154.72 41.5934 155.592 41.8723 155.592 42.9879C155.557 44.2778 154.964 44.5916 152.21 44.7659L149.491 44.9402V47.5549V50.1696L152.105 50.2742C154.894 50.3788 155.592 50.7623 155.592 52.3311C155.592 53.4467 154.615 53.8302 151.826 53.8302C150.188 53.8302 149.351 53.9697 149.247 54.2486C148.863 55.2944 148.933 59.6871 149.351 59.966C150.118 60.4192 156.219 60.1055 157.683 59.5477C160.193 58.5367 162.216 55.5385 162.216 52.7843C162.216 51.2504 161.1 48.6705 160.298 48.3568C159.566 48.1127 159.671 47.4155 160.507 46.6485C163.819 43.72 161.867 37.2356 157.404 36.0851C155.836 35.7016 148.305 35.3879 147.538 35.6668Z" fill="#7C170D"/>
<path d="M234.696 38.872L232.186 41.4518L232.255 51.1436L232.36 60.8355L240.483 60.94L248.571 61.0098V57.8721V54.7694L243.969 54.6648L239.332 54.5602V52.9914V51.4225L243.865 51.2482L248.397 51.0739L248.501 49.3308C248.571 48.3895 248.536 47.0647 248.397 46.4721L248.187 45.3216H243.655H239.123L239.228 43.8225L239.332 42.3583L243.725 42.1839L248.153 42.0096L250 40.2316C251.046 39.2555 252.336 37.9307 252.894 37.338L253.94 36.2573H245.573H237.241L234.696 38.872Z" fill="#7C170D"/>
<path d="M127.515 38.301C125.911 39.6955 124.517 40.9157 124.412 41.0203C122.878 42.5194 117.37 47.6442 115.452 49.3525C114.058 50.5727 112.908 51.7231 112.908 51.8626C112.908 52.0369 115.104 52.1764 117.823 52.1764H122.739L126.33 48.8644C128.282 47.0516 129.99 45.5525 130.13 45.5525C130.409 45.5525 130.339 52.5599 130.025 53.3268C129.816 53.9195 129.154 53.9892 120.752 54.0241L111.687 54.0938L111.583 56.848C111.513 58.3819 111.618 59.7416 111.757 59.881C112.21 60.3342 136.126 60.6828 136.405 60.2296C136.544 60.0205 136.754 54.5122 136.858 47.9928L137.067 36.1396H134.487C133.058 36.1396 131.559 36.035 131.176 35.9304C130.618 35.7909 129.746 36.3139 127.515 38.301Z" fill="#7C170D"/>
</svg>
